<?xml version="1.0" encoding="UTF-8" standalone="no"?>
<!DOCTYPE svg PUBLIC "-//W3C//DTD SVG 1.1//EN" "http://www.w3.org/Graphics/SVG/1.1/DTD/svg11.dtd">
<svg width="100%" height="100%" viewBox="0 0 340 386" version="1.1" xmlns="http://www.w3.org/2000/svg" xmlns:xlink="http://www.w3.org/1999/xlink" xml:space="preserve" xmlns:serif="http://www.serif.com/" style="fill-rule:evenodd;clip-rule:evenodd;stroke-linejoin:round;stroke-miterlimit:2;">
    <g transform="matrix(0.24,0,0,0.24,0,0)">
        <g transform="matrix(4.16667,0,0,4.16667,1019.88,1119.16)">
            <g id="Layer-1" serif:id="Layer 1">
                <path d="M0,-152.016C-0.035,-157.157 -0.771,-162.248 1.182,-167.523C3.375,-164.865 5.276,-162.274 7.48,-159.973C9.646,-157.711 12.065,-155.682 14.469,-153.665C16.969,-151.567 19.582,-149.605 22.234,-147.514C17.993,-147.295 6.41,-149.601 0,-152.016M-62.875,50.125C-63.058,50.163 -63.239,50.2 -63.421,50.238C-63.843,49.386 -64.342,48.563 -64.674,47.677C-68.323,37.934 -71.686,28.071 -75.668,18.466C-78.453,11.75 -82.03,5.357 -85.34,-1.136C-88.502,-7.338 -91.713,-13.516 -95.018,-19.642C-97.99,-25.153 -101.251,-30.511 -104.15,-36.059C-109.315,-45.944 -113.673,-56.162 -116.281,-67.063C-119.192,-79.233 -120.529,-91.603 -119.765,-104.053C-118.998,-116.564 -116.697,-128.877 -112.482,-140.756C-112.301,-141.266 -112.023,-141.741 -111.617,-142.601C-111.347,-141.831 -111.12,-141.489 -111.123,-141.148C-111.214,-130.192 -108.563,-119.72 -105.452,-109.343C-100.9,-94.16 -94.626,-79.644 -88.251,-65.164C-83.082,-53.424 -77.331,-41.922 -73.704,-29.542C-71.266,-21.221 -69.117,-12.847 -67.854,-4.257C-66.76,3.191 -65.438,10.61 -64.512,18.079C-63.916,22.886 -63.832,27.758 -63.56,32.604C-63.304,37.175 -63.088,41.75 -62.884,46.325C-62.827,47.588 -62.875,48.858 -62.875,50.125M-116.324,16.547C-116.531,16.59 -116.738,16.632 -116.946,16.674C-117.625,15.463 -118.4,14.294 -118.968,13.032C-124.89,-0.13 -133.211,-11.728 -142.069,-23.021C-148.932,-31.77 -156.345,-40.114 -161.848,-49.892C-167.497,-59.931 -171.263,-70.525 -173.421,-81.878C-175.342,-91.987 -175.671,-102.172 -174.834,-112.208C-173.127,-132.671 -165.983,-151.217 -152.737,-167.269C-144.32,-177.47 -134.295,-185.613 -123.014,-192.34C-122.787,-192.475 -122.472,-192.463 -121.945,-192.573C-121.55,-191.182 -122.523,-190.285 -123.086,-189.282C-128.395,-179.818 -133.162,-170.09 -137.209,-160.021C-141.999,-148.105 -145.612,-135.866 -147.454,-123.113C-148.416,-116.449 -149.221,-109.8 -149.024,-103.054C-148.766,-94.183 -147.471,-85.492 -144.998,-76.95C-140.505,-61.432 -134.311,-46.529 -128.72,-31.409C-123.427,-17.093 -119.161,-2.495 -116.356,12.513C-116.113,13.815 -116.324,15.201 -116.324,16.547M-197.125,-89.674C-197.033,-84.168 -195.648,-78.687 -194.91,-73.187C-194.763,-72.093 -194.889,-70.964 -194.889,-69.851C-195.101,-69.786 -195.313,-69.72 -195.525,-69.656C-197.616,-74.902 -199.812,-80.109 -201.774,-85.403C-205.144,-94.494 -207.349,-103.918 -209.208,-113.408C-209.915,-117.018 -210.019,-120.752 -210.31,-124.437C-210.658,-128.847 -211.301,-133.278 -211.141,-137.675C-210.375,-158.711 -204.827,-178.206 -191.274,-194.763C-184.618,-202.894 -176.648,-209.636 -167.601,-215.093C-157.199,-221.367 -142.182,-227.712 -128.147,-230.436C-129.119,-229.579 -129.594,-229.032 -130.18,-228.661C-140.384,-222.193 -149.844,-214.788 -158.149,-206C-173.417,-189.844 -184.377,-171.143 -190.657,-149.796C-192.861,-142.303 -194.442,-134.668 -195.741,-126.928C-197.823,-114.523 -197.332,-102.096 -197.125,-89.674M93.531,-102.158C91.934,-105.202 90.365,-108.273 88.559,-111.193C80.669,-123.947 69.96,-134.054 58.048,-142.917C49.921,-148.965 41.581,-154.736 33.183,-160.403C30.718,-162.065 29.331,-164.163 28.544,-166.818C27.574,-170.089 26.693,-173.388 25.837,-176.691C24.964,-180.055 23.119,-182.66 20.077,-184.377C18.595,-185.213 17.158,-186.166 15.598,-186.82C6.916,-190.454 -1.773,-194.072 -10.508,-197.576C-15.383,-199.531 -20.352,-201.252 -24.98,-202.969C-27.008,-206.118 -28.455,-208.591 -30.118,-210.91C-36.319,-219.554 -44.822,-222.649 -55.148,-220.876C-64.953,-219.193 -69.897,-210.985 -69.859,-202.954C-69.832,-197.22 -69.223,-191.58 -68.09,-185.971C-67.51,-183.096 -67.124,-180.183 -66.602,-176.996C-73.468,-181.783 -78.503,-187.727 -82.146,-194.858C-83.844,-198.18 -85.16,-201.702 -85.361,-205.438C-85.968,-216.7 -81.152,-225.162 -71.239,-230.329C-63.222,-234.508 -54.679,-235.806 -45.542,-234.164C-36.194,-232.485 -28.158,-228.53 -21.444,-222.055C-17.47,-218.223 -14.132,-213.731 -10.252,-209.24C-10.523,-210.554 -10.608,-211.676 -10.989,-212.686C-12.441,-216.538 -13.866,-220.408 -15.525,-224.173C-20.99,-236.576 -29.667,-246.239 -40.953,-253.649C-55.317,-263.08 -71.499,-266.994 -88.268,-268.13C-97.926,-268.785 -107.708,-268.87 -117.46,-267.615C-128.129,-266.243 -138.46,-263.793 -148.448,-259.919C-163.097,-254.237 -176.283,-246.179 -188.213,-235.866C-194.878,-230.104 -200.813,-223.765 -206.359,-217.004C-214.756,-206.77 -221.68,-195.597 -227.287,-183.607C-238.25,-160.161 -244.537,-135.6 -244.667,-109.621C-244.713,-100.462 -245.166,-91.261 -243.731,-82.166C-242.136,-72.051 -240.19,-62.001 -236.941,-52.246C-234.503,-44.926 -232.106,-37.579 -228.111,-30.933C-222.237,-21.162 -213.675,-13.972 -204.713,-7.213C-189.808,4.03 -173.492,13.02 -157.396,22.358C-144.154,30.042 -130.763,37.477 -117.664,45.397C-104.529,53.338 -91.899,62.013 -81.318,73.342C-76.968,78 -73.362,83.101 -70.876,88.958C-68.162,95.35 -67.818,101.965 -69.528,108.659C-70.179,111.205 -71.153,113.668 -72.003,116.237C-70.031,116.854 -68.924,115.793 -67.936,114.85C-65.235,112.276 -62.457,109.745 -60.051,106.907C-51.976,97.383 -44.843,87.188 -38.764,76.261C-31.1,62.487 -25.843,47.921 -25.347,32.066C-25.052,22.636 -25.521,13.16 -26.115,3.733C-26.49,-2.207 -27.668,-8.103 -28.603,-14C-29.558,-20.032 -30.669,-26.037 -31.679,-32.06C-31.859,-33.139 -31.882,-34.245 -32.062,-36.31C-31.023,-35 -30.551,-34.516 -30.206,-33.953C-26.234,-27.462 -21.67,-21.42 -16.729,-15.632C-10.907,-8.809 -4.206,-3.028 3.228,1.94C5.054,3.16 7.03,3.8 9.3,3.746C16.313,3.576 22.393,0.853 27.817,-3.27C35.249,-8.919 38.4,-16.761 38.724,-25.977C37.86,-26.702 37.12,-27.323 36.381,-27.943C34.173,-27.416 32.127,-26.749 30.029,-26.462C23.485,-25.565 17.094,-25.743 11.78,-30.435C8.318,-33.492 5.661,-37.218 3.558,-41.318C0.604,-47.072 -1.161,-53.147 -2.195,-59.576C-3.246,-66.099 -2.232,-72.071 0.632,-77.822C2.969,-82.517 6.972,-85.276 12.116,-85.725C24.288,-86.788 34.29,-82.136 42.057,-72.965C45.646,-68.727 48.479,-63.847 51.634,-59.244C52.918,-57.37 54.043,-55.342 56.38,-54.825C56.842,-55.014 57.14,-55.075 57.362,-55.238C67.457,-62.61 77.119,-70.498 85.579,-79.736C88.867,-83.326 91.845,-87.218 93.749,-91.782C95.199,-95.259 95.315,-98.758 93.531,-102.158" style="fill:url(#_Linear1);fill-rule:nonzero;"/>
            </g>
        </g>
    </g>
    <defs>
        <linearGradient id="_Linear1" x1="0" y1="0" x2="1" y2="0" gradientUnits="userSpaceOnUse" gradientTransform="matrix(-274.875,46.2606,-46.2606,-274.875,40.2623,-123.917)"><stop offset="0" style="stop-color:rgb(35,31,32);stop-opacity:1"/><stop offset="1" style="stop-color:rgb(147,149,152);stop-opacity:1"/></linearGradient>
    </defs>
</svg>
